<?xml version="1.0" encoding="UTF-8"?>
<!DOCTYPE svg PUBLIC "-//W3C//DTD SVG 1.1//EN" "http://www.w3.org/Graphics/SVG/1.1/DTD/svg11.dtd">
<!-- Creator: CorelDRAW 2019 (64-Bit) -->
<svg xmlns="http://www.w3.org/2000/svg" xml:space="preserve" width="1.27634in" height="1.27491in" version="1.1" style="shape-rendering:geometricPrecision; text-rendering:geometricPrecision; image-rendering:optimizeQuality; fill-rule:evenodd; clip-rule:evenodd"
viewBox="0 0 314.94 314.58"
 xmlns:xlink="http://www.w3.org/1999/xlink"
 xmlns:xodm="http://www.corel.com/coreldraw/odm/2003">
 <defs>
  <style type="text/css">
   <![CDATA[
    .fil3 {fill:#00D5E0}
    .fil2 {fill:#0675B1}
    .fil6 {fill:#79C600}
    .fil4 {fill:#8D00EC}
    .fil5 {fill:#DC00F8}
    .fil7 {fill:#E0EA00}
    .fil0 {fill:#FF1100}
    .fil1 {fill:#FF782E}
   ]]>
  </style>
 </defs>
 <g id="Layer_x0020_1">
  <metadata id="CorelCorpID_0Corel-Layer"/>
  <g id="_2066936699184">
   <path class="fil0" d="M75.34 0c41.61,0 75.34,33.73 75.34,75.34 0,41.61 -33.73,75.34 -75.34,75.34 -41.61,0 -75.34,-33.73 -75.34,-75.34 0,-41.61 33.73,-75.34 75.34,-75.34z"/>
   <path class="fil1" d="M109.16 8.01c24.62,12.39 41.52,37.89 41.52,67.33 0,29.44 -16.9,54.94 -41.52,67.33 -24.62,-12.39 -41.52,-37.89 -41.52,-67.33 0,-29.44 16.89,-54.94 41.52,-67.33z"/>
   <path class="fil2" d="M-0 239.24c0,-41.61 33.73,-75.34 75.34,-75.34 41.61,0 75.34,33.73 75.34,75.34 0,41.61 -33.73,75.34 -75.34,75.34 -41.61,0 -75.34,-33.73 -75.34,-75.34z"/>
   <path class="fil3" d="M8 205.42c12.39,-24.62 37.89,-41.52 67.33,-41.52 29.44,0 54.94,16.9 67.33,41.52 -12.39,24.62 -37.89,41.52 -67.33,41.52 -29.45,0 -54.94,-16.89 -67.33,-41.52z"/>
   <path class="fil4" d="M236.51 314.58c-41.61,0 -75.34,-33.73 -75.34,-75.34 0,-41.61 33.73,-75.34 75.34,-75.34 41.61,0 75.34,33.73 75.34,75.34 0,41.61 -33.73,75.34 -75.34,75.34z"/>
   <path class="fil5" d="M202.68 306.58c-24.62,-12.39 -41.52,-37.89 -41.52,-67.33 0,-29.44 16.89,-54.94 41.52,-67.33 24.62,12.39 41.52,37.89 41.52,67.33 0,29.44 -16.89,54.94 -41.52,67.33z"/>
   <path class="fil6" d="M314.94 75.34c0,41.61 -33.73,75.34 -75.34,75.34 -41.61,0 -75.34,-33.73 -75.34,-75.34 0,-41.61 33.73,-75.34 75.34,-75.34 41.61,0 75.34,33.73 75.34,75.34z"/>
   <path class="fil7" d="M306.93 109.16c-12.39,24.62 -37.89,41.52 -67.33,41.52 -29.44,0 -54.94,-16.89 -67.33,-41.52 12.39,-24.62 37.89,-41.52 67.33,-41.52 29.44,0 54.94,16.89 67.33,41.52z"/>
  </g>
 </g>
</svg>
