<?xml version="1.0" encoding="UTF-8"?>
<!DOCTYPE svg PUBLIC "-//W3C//DTD SVG 1.1//EN" "http://www.w3.org/Graphics/SVG/1.1/DTD/svg11.dtd">
<!-- Creator: CorelDRAW 2019 (64-Bit) -->
<svg xmlns="http://www.w3.org/2000/svg" xml:space="preserve" width="6.06598in" height="0.763547in" version="1.1" style="shape-rendering:geometricPrecision; text-rendering:geometricPrecision; image-rendering:optimizeQuality; fill-rule:evenodd; clip-rule:evenodd"
viewBox="0 0 6204.7 781.01"
 xmlns:xlink="http://www.w3.org/1999/xlink"
 xmlns:xodm="http://www.corel.com/coreldraw/odm/2003">
 <defs>
  <style type="text/css">
   <![CDATA[
    .fil3 {fill:#00D5E0}
    .fil2 {fill:#0675B1}
    .fil6 {fill:#79C600}
    .fil4 {fill:#8D00EC}
    .fil5 {fill:#DC00F8}
    .fil7 {fill:#E0EA00}
    .fil0 {fill:#FF1100}
    .fil1 {fill:#FF782E}
    .fil8 {fill:white}
   ]]>
  </style>
 </defs>
 <g id="Layer_x0020_1">
  <metadata id="CorelCorpID_0Corel-Layer"/>
  <g id="_2529749702160">
   <path class="fil0" d="M187.04 0c103.3,0 187.04,83.74 187.04,187.04 0,103.3 -83.74,187.04 -187.04,187.04 -103.3,0 -187.04,-83.74 -187.04,-187.04 0,-103.3 83.74,-187.04 187.04,-187.04z"/>
   <path class="fil1" d="M271.01 19.88c61.13,30.77 103.07,94.07 103.07,167.17 0,73.1 -41.95,136.4 -103.07,167.16 -61.13,-30.77 -103.07,-94.06 -103.07,-167.16 0,-73.1 41.95,-136.4 103.07,-167.17z"/>
   <path class="fil2" d="M-0 593.97c0,-103.3 83.74,-187.04 187.04,-187.04 103.3,0 187.04,83.74 187.04,187.04 0,103.3 -83.74,187.04 -187.04,187.04 -103.3,0 -187.04,-83.74 -187.04,-187.04z"/>
   <path class="fil3" d="M19.87 510c30.77,-61.13 94.06,-103.07 167.17,-103.07 73.1,0 136.4,41.94 167.17,103.07 -30.77,61.13 -94.06,103.07 -167.17,103.07 -73.1,0 -136.4,-41.94 -167.17,-103.07z"/>
   <path class="fil4" d="M587.17 781.01c-103.3,0 -187.04,-83.74 -187.04,-187.04 0,-103.3 83.74,-187.04 187.04,-187.04 103.3,0 187.04,83.74 187.04,187.04 0,103.3 -83.74,187.04 -187.04,187.04z"/>
   <path class="fil5" d="M503.2 761.13c-61.13,-30.77 -103.07,-94.07 -103.07,-167.17 0,-73.1 41.95,-136.4 103.07,-167.16 61.13,30.77 103.07,94.06 103.07,167.16 0,73.1 -41.95,136.4 -103.07,167.17z"/>
   <path class="fil6" d="M781.88 187.05c0,103.3 -83.74,187.04 -187.04,187.04 -103.3,0 -187.04,-83.74 -187.04,-187.04 0,-103.3 83.74,-187.04 187.04,-187.04 103.3,0 187.04,83.74 187.04,187.04z"/>
   <path class="fil7" d="M762.01 271.02c-30.77,61.13 -94.07,103.07 -167.17,103.07 -73.1,0 -136.4,-41.94 -167.16,-103.07 30.77,-61.13 94.06,-103.07 167.16,-103.07 73.1,0 136.4,41.94 167.17,103.07z"/>
   <path class="fil8" d="M5412.5 277.39l0 0c3.58,0 7.11,0.18 10.6,0.52l0 -94.91c-3.51,-0.19 -7.05,-0.3 -10.6,-0.3l-0 0c-40.55,0 -78.3,12.6 -109.54,34.08l0 -25.31 -84.72 0 0 185.5 0 226.9 84.72 0 0 -216.93c0,-60.25 49.3,-109.54 109.54,-109.54z"/>
   <path class="fil8" d="M4936.58 272.85c-62.81,0 -113.72,50.91 -113.72,113.72 0,62.81 50.91,113.72 113.72,113.72 62.81,0 113.72,-50.91 113.72,-113.72 0,-62.81 -50.91,-113.72 -113.72,-113.72zm0 -103.58c-120.02,0 -217.3,97.29 -217.3,217.3 0,120.01 97.29,217.3 217.3,217.3 120.01,0 217.3,-97.29 217.3,-217.3 0,-120.01 -97.29,-217.3 -217.3,-217.3z"/>
   <path class="fil8" d="M4450.79 192.54l0 4.54 -96.07 0 0 89.11 96.07 0 0 317.68 84.72 0 0 -317.68 96.07 0 0 -89.11 -96.07 0 0 -4.54 -0.22 0c1.06,-26.2 4.49,-59.16 27.75,-73.48 18.2,-12.15 48.97,-4.09 69.24,-1.32 10.52,-22.33 17.29,-42.59 23.06,-66.78 1.93,-9.21 -8.13,-11.28 -14.54,-14.11 -14.24,-5.29 -29.21,-7.94 -44.02,-9.61l-19.57 0c-35.82,2.07 -71.42,16.41 -93.23,44.78 -26.56,33.47 -33.13,77.88 -33.09,120.51l-0.1 0z"/>
   <path class="fil8" d="M4087.06 438.57l0 -152.38 -99.48 0 0 -89.11 99.48 0 0 -124.39 84.72 0 0 124.39 99.48 0 0 89.11 -99.48 0 0 152.38 -0.22 0c1.06,26.2 4.49,59.16 27.75,73.48 18.19,12.15 48.97,4.09 69.24,1.32 10.53,22.33 17.29,42.6 23.06,66.78 1.93,9.21 -8.13,11.28 -14.53,14.1 -14.24,5.3 -29.21,7.95 -44.03,9.61l-19.57 0c-35.82,-2.07 -71.42,-16.41 -93.23,-44.78 -26.56,-33.47 -33.13,-77.88 -33.09,-120.51l-0.1 0z"/>
   <path class="fil8" d="M3706.89 272.85c62.81,0 113.72,50.91 113.72,113.72 0,62.81 -50.91,113.72 -113.72,113.72 -62.81,0 -113.72,-50.91 -113.72,-113.72 0,-62.81 50.91,-113.72 113.72,-113.72zm0 -103.58c49.92,0 95.9,16.84 132.59,45.14l0 -42.57 84.72 0 0 214.73 0 214.73 -84.72 0 0 -42.56c-36.69,28.3 -82.67,45.14 -132.59,45.14 -120.01,0 -217.3,-97.29 -217.3,-217.3 0,-120.01 97.29,-217.3 217.3,-217.3z"/>
   <path class="fil8" d="M3060.17 272.85c62.81,0 113.72,50.91 113.72,113.72 0,62.81 -50.91,113.72 -113.72,113.72 -62.81,0 -113.72,-50.91 -113.72,-113.72 0,-62.81 50.91,-113.72 113.72,-113.72zm0 -103.58c120.01,0 217.3,97.29 217.3,217.3 0,120.01 -97.29,217.3 -217.3,217.3 -49.92,0 -95.9,-16.84 -132.59,-45.14l0 198.09 -84.72 0 0 -370.25 0 -217.3 84.72 0 0 45.14c36.69,-28.3 82.67,-45.14 132.59,-45.14z"/>
   <path class="fil8" d="M2767.25 263.96l0 0c3.58,0 7.11,0.18 10.6,0.52l0 -94.91c-3.51,-0.19 -7.05,-0.29 -10.6,-0.29l-0 0c-40.55,0 -78.3,12.6 -109.54,34.07l0 -25.31 -84.72 0 0 185.5 0 226.91 84.72 0 0 -216.94c0,-60.24 49.29,-109.54 109.54,-109.54z"/>
   <path class="fil8" d="M2291.04 272.85c-62.81,0 -113.72,50.91 -113.72,113.72 0,62.81 50.91,113.72 113.72,113.72 62.81,0 113.72,-50.91 113.72,-113.72 0,-62.81 -50.91,-113.72 -113.72,-113.72zm0 -103.58c-120.01,0 -217.3,97.29 -217.3,217.3 0,120.01 97.29,217.3 217.3,217.3 120.02,0 217.3,-97.29 217.3,-217.3 0,-120.01 -97.29,-217.3 -217.3,-217.3z"/>
   <polygon class="fil8" points="2010.04,603.7 2010.04,24.19 1925.32,24.19 1925.32,603.7 "/>
   <path class="fil8" d="M1644.32 272.67c-62.81,0 -113.72,50.91 -113.72,113.72 0,62.81 50.91,113.72 113.72,113.72 62.81,0 113.72,-50.91 113.72,-113.72 0,-62.81 -50.91,-113.72 -113.72,-113.72zm0 -103.58c-120.02,0 -217.3,97.29 -217.3,217.3 0,120.02 97.29,217.31 217.3,217.31 120.01,0 217.3,-97.29 217.3,-217.31 0,-120.01 -97.29,-217.3 -217.3,-217.3z"/>
   <path class="fil8" d="M1188.38 169.09c71.75,0 135.36,34.78 174.94,88.39l-73.22 71.29 0 6.73c-18.68,-37.25 -57.2,-62.83 -101.72,-62.83 -62.81,0 -113.72,50.91 -113.72,113.72 0,62.81 50.91,113.72 113.72,113.72 44.51,0 83.04,-25.57 101.72,-62.82l0 6.73 73.22 71.29c-39.57,53.61 -103.19,88.39 -174.94,88.39 -120.01,0 -217.3,-97.29 -217.3,-217.31 0,-120.01 97.29,-217.3 217.3,-217.3z"/>
   <polygon class="fil8" points="3425.89,603.7 3425.89,24.19 3341.17,24.19 3341.17,603.7 "/>
   <path class="fil8" d="M6010.43 277.39l0 0c60.25,0 109.55,49.3 109.55,109.54l0 216.93 84.72 0 0 -226.9c0,-106.85 -87.42,-194.27 -194.26,-194.27l-0 0c-69.38,0 -130.56,36.87 -164.94,91.98 -34.38,-55.11 -95.56,-91.98 -164.94,-91.98l-0 0c-40.55,0 -78.3,12.6 -109.54,34.08l0 -35.53 -84.72 0 0 195.73 0 226.9 84.72 0 0 -216.93c0,-60.25 49.3,-109.54 109.54,-109.54l0 0c60.25,0 109.55,49.3 109.55,109.54l0 216.93 26.07 0 58.65 0 26.07 0 0 -216.93c0,-60.25 49.3,-109.54 109.54,-109.54z"/>
  </g>
 </g>
</svg>
